<?xml version="1.0" standalone="no"?>
<!DOCTYPE svg PUBLIC "-//W3C//DTD SVG 20010904//EN"
 "http://www.w3.org/TR/2001/REC-SVG-20010904/DTD/svg10.dtd">
<svg version="1.0" xmlns="http://www.w3.org/2000/svg"
 width="200.000000pt" height="200.000000pt" viewBox="0 0 200.000000 200.000000"
 preserveAspectRatio="xMidYMid meet">
<metadata>
Created by potrace 1.11, written by Peter Selinger 2001-2013
</metadata>
<g transform="translate(0.000000,200.000000) scale(0.100000,-0.100000)"
fill="#000000" stroke="none">
<path d="M827 1936 c-103 -30 -226 -111 -297 -196 -47 -56 -51 -69 -12 -44 78
51 173 83 277 93 l70 6 3 40 c5 54 17 65 71 65 50 0 71 -13 71 -42 0 -22 3
-22 40 -3 28 14 30 13 79 -25 28 -22 52 -48 53 -58 1 -9 2 -57 4 -107 3 -122
9 -177 24 -205 10 -18 9 -24 -1 -32 -9 -5 -4 -6 14 -2 33 7 37 -11 5 -20 -36
-9 -36 -9 -102 59 -65 67 -91 78 -120 49 -13 -12 -16 -40 -16 -138 0 -120 1
-123 27 -147 l26 -24 -16 25 c-13 19 -17 48 -17 128 0 57 5 112 10 122 15 28
48 12 86 -41 49 -70 65 -76 181 -60 198 26 174 29 206 -24 15 -25 25 -50 22
-54 -2 -5 -19 -14 -37 -22 -32 -12 -48 -26 -48 -41 0 -4 59 -46 130 -93 114
-74 130 -87 121 -103 -8 -14 -2 -32 25 -76 73 -122 114 -252 114 -367 l0 -67
-52 -22 c-57 -24 -254 -67 -264 -58 -3 4 5 26 19 50 14 24 28 59 32 78 10 49
-7 28 -35 -43 -12 -31 -28 -61 -34 -64 -13 -8 -284 -6 -363 3 -47 6 -53 9 -53
29 0 41 -22 48 -76 24 -27 -12 -67 -25 -89 -28 -23 -4 -39 -12 -38 -19 4 -15
-10 -15 -25 0 -9 9 -12 8 -12 -5 0 -10 -5 -14 -13 -11 -8 3 -34 -2 -58 -10
-24 -9 -52 -16 -62 -16 -10 0 -15 -5 -12 -10 3 -6 -6 -15 -22 -21 -34 -13 -39
-12 -35 7 3 13 -1 13 -17 4 -12 -6 -21 -8 -21 -4 0 3 -6 1 -13 -5 -8 -6 -16
-8 -20 -5 -3 3 -10 -3 -16 -15 -13 -24 -1 -35 32 -27 15 3 13 1 -5 -6 -16 -7
-28 -16 -28 -21 0 -4 -5 -5 -11 -1 -8 4 -7 9 2 16 10 7 6 8 -12 4 -50 -11
-186 149 -203 241 -2 10 4 35 14 56 21 42 19 46 -10 17 -27 -27 -26 -92 4
-152 13 -27 19 -48 15 -48 -18 0 -119 55 -123 67 -8 21 19 160 48 248 23 68
127 300 141 313 3 3 22 -15 44 -39 48 -55 105 -86 238 -133 169 -58 169 -58
176 -156 2 -31 4 -23 5 26 2 90 -1 93 -158 149 -126 45 -192 79 -224 114 -18
20 -18 21 15 63 60 76 68 81 96 52 9 -8 25 -14 36 -12 28 4 36 40 43 198 7
135 -4 193 -30 171 -23 -19 -28 3 -25 87 4 76 4 77 -22 80 -42 5 -449 -187
-449 -211 0 -8 11 -20 25 -27 13 -7 27 -21 30 -30 3 -9 -17 -64 -44 -121 -119
-251 -168 -477 -127 -591 19 -52 202 -335 250 -386 82 -87 259 -151 415 -152
65 0 79 -3 110 -27 50 -38 61 -54 50 -75 -6 -12 -6 -25 1 -38 9 -17 21 -20 80
-20 39 0 73 0 78 1 4 1 12 20 17 43 10 41 10 41 60 44 309 16 562 81 644 166
35 36 194 345 216 420 32 106 14 253 -46 385 -23 51 -29 75 -25 106 3 22 8 74
11 115 3 41 8 97 11 124 l6 49 -28 -7 c-78 -19 -78 -19 -98 15 -77 131 -258
334 -360 404 l-58 40 -172 6 c-94 4 -205 9 -246 12 -50 4 -91 2 -123 -7z
m-207 -1580 c0 -2 -7 -9 -15 -16 -13 -11 -14 -10 -9 4 5 14 24 23 24 12z m305
-296 c12 -19 -12 -10 -31 11 -19 22 -19 22 3 10 12 -6 25 -16 28 -21z"/>
<path d="M779 1517 c-18 -12 -39 -34 -46 -47 -17 -34 -16 -92 2 -116 15 -18
15 -18 14 11 -5 85 23 135 76 135 32 0 33 -4 44 -115 l8 -90 2 106 c1 75 -3
110 -11 117 -29 22 -55 22 -89 -1z"/>
<path d="M1175 1155 c17 -8 37 -14 45 -14 8 0 0 6 -19 14 -42 19 -66 18 -26 0z"/>
<path d="M1241 1136 c2 -2 15 -9 29 -15 24 -11 24 -11 6 3 -16 13 -49 24 -35
12z"/>
<path d="M1007 815 c-12 -11 -17 -31 -16 -63 l1 -47 10 48 c10 47 17 53 62 48
60 -5 134 -112 122 -175 -4 -22 -3 -27 4 -16 15 23 12 88 -6 127 -34 70 -139
117 -177 78z"/>
<path d="M1563 765 c0 -27 2 -38 4 -22 2 15 2 37 0 50 -2 12 -4 0 -4 -28z"/>
<path d="M665 708 c11 -6 25 -19 32 -27 7 -9 13 -11 13 -5 0 15 -33 44 -51 44
-9 0 -7 -5 6 -12z"/>
<path d="M863 605 c0 -44 2 -61 4 -37 2 23 2 59 0 80 -2 20 -4 1 -4 -43z"/>
<path d="M779 551 c24 -23 49 -41 55 -40 6 0 2 6 -8 12 -11 7 -35 25 -55 41
-26 20 -24 17 8 -13z"/>
<path d="M523 425 c0 -8 4 -15 9 -15 4 0 8 7 8 15 0 8 -4 15 -8 15 -5 0 -9 -7
-9 -15z"/>
</g>
</svg>
